<svg width="383" height="303" viewBox="0 0 383 303" fill="none" xmlns="http://www.w3.org/2000/svg">
<g filter="url(#filter0_d_5_54)">
<rect x="66" y="105.02" width="300" height="100" rx="16" transform="rotate(-20.4915 66 105.02)" fill="#5465FF"/>
</g>
<path d="M206.688 118.631L198.541 96.8311L211.613 91.946L212.488 94.2878L202.056 98.1863L204.809 105.552L214.261 102.02L215.137 104.362L205.684 107.894L209.328 117.645L206.688 118.631ZM223.94 112.184L217.83 95.8337L220.342 94.8949L226.453 111.245L223.94 112.184ZM218.089 92.6313C217.599 92.8143 217.115 92.8053 216.635 92.6044C216.163 92.4008 215.839 92.0648 215.664 91.5965C215.489 91.1281 215.513 90.6622 215.736 90.1987C215.967 89.7326 216.327 89.408 216.816 89.225C217.306 89.042 217.787 89.0523 218.259 89.2559C218.739 89.4568 219.066 89.7915 219.241 90.2599C219.416 90.7282 219.388 91.1955 219.158 91.6616C218.935 92.1251 218.579 92.4483 218.089 92.6313ZM225.419 86.7865L233.566 108.587L231.054 109.525L222.907 87.7253L225.419 86.7865ZM245.149 104.646C243.574 105.235 242.085 105.395 240.683 105.126C239.285 104.848 238.042 104.196 236.955 103.171C235.873 102.136 235.019 100.781 234.393 99.1062C233.767 97.4315 233.521 95.8414 233.654 94.336C233.791 92.8208 234.276 91.4993 235.108 90.3715C235.944 89.234 237.101 88.3894 238.577 87.8377C239.428 87.5195 240.322 87.3472 241.259 87.3207C242.195 87.2943 243.123 87.4731 244.043 87.8572C244.96 88.2342 245.816 88.8687 246.611 89.7607C247.405 90.6527 248.087 91.8616 248.657 93.3873L249.055 94.4517L236.452 99.1617L235.64 96.9903L245.689 93.235C245.344 92.3124 244.852 91.5582 244.212 90.9723C243.58 90.3837 242.849 90.006 242.018 89.8393C241.194 89.6699 240.328 89.7549 239.42 90.0944C238.42 90.4683 237.647 91.0403 237.101 91.8102C236.56 92.5703 236.242 93.4172 236.146 94.3507C236.05 95.2843 236.171 96.2017 236.507 97.103L237.048 98.5506C237.51 99.7854 238.114 100.753 238.861 101.452C239.612 102.142 240.454 102.567 241.388 102.728C242.318 102.881 243.291 102.768 244.306 102.389C244.966 102.143 245.528 101.828 245.991 101.444C246.459 101.051 246.817 100.593 247.067 100.071C247.314 99.5424 247.438 98.9542 247.439 98.307L250.12 98.0812C250.173 98.9999 250.014 99.8842 249.644 100.734C249.271 101.577 248.707 102.338 247.95 103.017C247.19 103.689 246.256 104.232 245.149 104.646Z" fill="white"/>
<g filter="url(#filter1_d_5_54)">
<rect x="38.9147" y="91" width="300" height="100" rx="16" transform="rotate(22.9014 38.9147 91)" fill="#FF8754"/>
</g>
<path d="M125.535 175.107C125.857 173.993 125.696 172.954 125.05 171.991C124.404 171.027 123.433 170.271 122.135 169.723C121.185 169.322 120.29 169.125 119.449 169.131C118.614 169.14 117.884 169.329 117.26 169.699C116.642 170.071 116.188 170.599 115.9 171.283C115.658 171.855 115.586 172.405 115.684 172.931C115.792 173.454 116.005 173.943 116.323 174.398C116.644 174.846 117.004 175.257 117.405 175.632C117.809 176 118.188 176.321 118.541 176.593L120.471 178.099C120.967 178.482 121.503 178.946 122.078 179.494C122.66 180.044 123.17 180.675 123.61 181.387C124.059 182.095 124.344 182.881 124.463 183.746C124.583 184.611 124.431 185.545 124.006 186.55C123.517 187.709 122.771 188.627 121.769 189.306C120.774 189.988 119.581 190.359 118.189 190.421C116.805 190.486 115.289 190.171 113.642 189.475C112.107 188.826 110.882 188.017 109.968 187.047C109.061 186.08 108.473 185.017 108.206 183.86C107.945 182.705 108.02 181.524 108.432 180.316L111.112 181.448C110.84 182.287 110.829 183.072 111.079 183.803C111.34 184.53 111.782 185.177 112.405 185.745C113.039 186.309 113.781 186.77 114.633 187.13C115.624 187.549 116.581 187.764 117.506 187.776C118.433 187.781 119.249 187.592 119.954 187.207C120.662 186.815 121.182 186.229 121.512 185.447C121.813 184.735 121.858 184.072 121.649 183.457C121.44 182.843 121.07 182.259 120.539 181.705C120.008 181.152 119.41 180.612 118.744 180.084L116.425 178.216C114.953 177.027 113.918 175.779 113.318 174.473C112.719 173.167 112.724 171.792 113.334 170.347C113.841 169.147 114.608 168.237 115.634 167.618C116.671 166.995 117.845 166.669 119.157 166.639C120.479 166.605 121.823 166.877 123.191 167.455C124.573 168.039 125.697 168.806 126.562 169.755C127.43 170.698 127.999 171.727 128.267 172.844C128.542 173.964 128.469 175.072 128.047 176.168L125.535 175.107ZM138.391 191.739L142.406 182.234L144.877 183.278L138.084 199.356L135.614 198.313L136.764 195.591L136.596 195.52C135.875 196.178 134.995 196.624 133.958 196.861C132.923 197.09 131.799 196.948 130.585 196.435C129.58 196.01 128.779 195.413 128.184 194.643C127.591 193.866 127.26 192.937 127.19 191.855C127.124 190.766 127.38 189.538 127.957 188.17L132.273 177.953L134.744 178.997L130.499 189.046C130.003 190.219 129.936 191.292 130.298 192.267C130.666 193.245 131.363 193.951 132.389 194.384C133.003 194.644 133.694 194.751 134.461 194.705C135.236 194.662 135.977 194.407 136.684 193.941C137.397 193.478 137.967 192.744 138.391 191.739ZM142.944 201.409L152.001 179.971L154.471 181.015L151.128 188.928L151.337 189.017C151.637 188.814 152.038 188.565 152.542 188.268C153.056 187.966 153.688 187.773 154.44 187.688C155.202 187.598 156.106 187.775 157.153 188.217C158.506 188.789 159.557 189.631 160.304 190.744C161.05 191.858 161.451 193.158 161.506 194.645C161.56 196.132 161.231 197.719 160.517 199.408C159.798 201.111 158.885 202.465 157.778 203.469C156.674 204.467 155.464 205.091 154.15 205.341C152.838 205.585 151.512 205.423 150.172 204.857C149.139 204.421 148.384 203.901 147.908 203.296C147.434 202.685 147.123 202.089 146.973 201.508C146.827 200.92 146.725 200.441 146.668 200.071L146.374 199.947L145.331 202.418L142.944 201.409ZM148.769 194.396C148.256 195.61 147.981 196.757 147.945 197.835C147.912 198.907 148.127 199.849 148.59 200.661C149.055 201.466 149.784 202.078 150.775 202.497C151.807 202.933 152.784 203.025 153.705 202.773C154.636 202.516 155.472 201.997 156.213 201.217C156.964 200.432 157.581 199.467 158.064 198.323C158.542 197.192 158.798 196.1 158.832 195.045C158.877 193.986 158.662 193.044 158.188 192.219C157.724 191.39 156.969 190.754 155.922 190.312C154.917 189.888 153.965 189.786 153.066 190.006C152.17 190.22 151.356 190.706 150.623 191.466C149.894 192.219 149.276 193.196 148.769 194.396ZM160.918 209.002L167.71 192.923L170.097 193.932L169.035 196.444L169.245 196.532C169.942 195.816 170.765 195.378 171.712 195.218C172.662 195.052 173.66 195.19 174.707 195.633C175.768 196.081 176.549 196.694 177.05 197.474C177.562 198.249 177.835 199.15 177.87 200.176L178.038 200.247C178.8 199.59 179.696 199.192 180.726 199.051C181.759 198.904 182.851 199.073 184.003 199.559C185.44 200.167 186.426 201.114 186.96 202.4C187.497 203.68 187.366 205.265 186.567 207.156L182.021 217.917L179.55 216.873L184.096 206.112C184.598 204.926 184.631 203.941 184.197 203.157C183.764 202.374 183.107 201.796 182.228 201.425C181.097 200.947 180.077 200.919 179.167 201.341C178.26 201.755 177.587 202.483 177.147 203.522L172.725 213.99L170.213 212.929L174.865 201.917C175.251 201.002 175.266 200.141 174.908 199.332C174.554 198.516 173.909 197.911 172.974 197.516C172.332 197.245 171.66 197.162 170.957 197.268C170.261 197.377 169.614 197.663 169.016 198.126C168.427 198.584 167.966 199.208 167.633 199.997L163.388 210.046L160.918 209.002ZM186.538 219.825L193.33 203.747L195.801 204.79L189.008 220.869L186.538 219.825ZM195.718 201.597C195.237 201.394 194.891 201.055 194.681 200.579C194.477 200.107 194.473 199.64 194.667 199.18C194.862 198.719 195.199 198.397 195.68 198.213C196.167 198.033 196.652 198.044 197.133 198.248C197.615 198.451 197.957 198.789 198.161 199.261C198.371 199.737 198.379 200.205 198.185 200.665C197.99 201.126 197.649 201.447 197.161 201.627C196.681 201.811 196.2 201.801 195.718 201.597ZM207.318 209.656L206.433 211.749L198.101 208.229L198.985 206.136L207.318 209.656ZM203.041 203.309L205.512 204.353L199.038 219.678C198.743 220.376 198.623 220.942 198.678 221.376C198.743 221.807 198.911 222.149 199.182 222.403C199.463 222.654 199.784 222.855 200.147 223.009C200.419 223.124 200.649 223.204 200.835 223.25C201.024 223.289 201.175 223.32 201.289 223.343L200.854 225.774C200.66 225.766 200.4 225.73 200.073 225.666C199.743 225.61 199.348 225.484 198.888 225.289C198.19 224.994 197.569 224.555 197.026 223.972C196.49 223.392 196.132 222.702 195.952 221.902C195.778 221.105 195.889 220.239 196.284 219.304L203.041 203.309Z" fill="white"/>
<defs>
<filter id="filter0_d_5_54" x="66.5844" y="4.58434" width="314.855" height="197.524" filterUnits="userSpaceOnUse" color-interpolation-filters="sRGB">
<feFlood flood-opacity="0" result="BackgroundImageFix"/>
<feColorMatrix in="SourceAlpha" type="matrix" values="0 0 0 0 0 0 0 0 0 0 0 0 0 0 0 0 0 0 127 0" result="hardAlpha"/>
<feOffset dy="4"/>
<feGaussianBlur stdDeviation="2"/>
<feComposite in2="hardAlpha" operator="out"/>
<feColorMatrix type="matrix" values="0 0 0 0 0 0 0 0 0 0 0 0 0 0 0 0 0 0 0.25 0"/>
<feBlend mode="normal" in2="BackgroundImageFix" result="effect1_dropShadow_5_54"/>
<feBlend mode="normal" in="SourceGraphic" in2="effect1_dropShadow_5_54" result="shape"/>
</filter>
<filter id="filter1_d_5_54" x="0.96106" y="95.961" width="313.345" height="206.939" filterUnits="userSpaceOnUse" color-interpolation-filters="sRGB">
<feFlood flood-opacity="0" result="BackgroundImageFix"/>
<feColorMatrix in="SourceAlpha" type="matrix" values="0 0 0 0 0 0 0 0 0 0 0 0 0 0 0 0 0 0 127 0" result="hardAlpha"/>
<feOffset dy="4"/>
<feGaussianBlur stdDeviation="2"/>
<feComposite in2="hardAlpha" operator="out"/>
<feColorMatrix type="matrix" values="0 0 0 0 0 0 0 0 0 0 0 0 0 0 0 0 0 0 0.25 0"/>
<feBlend mode="normal" in2="BackgroundImageFix" result="effect1_dropShadow_5_54"/>
<feBlend mode="normal" in="SourceGraphic" in2="effect1_dropShadow_5_54" result="shape"/>
</filter>
</defs>
</svg>
